<svg width="21" height="21" viewBox="0 0 21 21" fill="none" xmlns="http://www.w3.org/2000/svg">
<path fill-rule="evenodd" clip-rule="evenodd" d="M2.28162 11.747L16.6266 11.747L10.3536 18.023C10.1083 18.2566 9.96939 18.5807 9.96939 18.9195C9.96939 19.2583 10.1083 19.5823 10.3536 19.816C10.5873 20.0613 10.9113 20.2002 11.2501 20.2002C11.5889 20.2002 11.913 20.0613 12.1466 19.816L20.4696 11.491C20.9828 10.9044 20.9828 10.0286 20.4696 9.44197L12.1446 1.11697C11.911 0.871613 11.5869 0.732746 11.2481 0.732746C10.9093 0.732746 10.5853 0.871613 10.3516 1.11697H10.3516C10.1063 1.35064 9.96739 1.67465 9.96739 2.01347C9.96739 2.35229 10.1063 2.67631 10.3516 2.90997L16.6266 9.18497L2.28162 9.18497C1.93587 9.16401 1.59772 9.29223 1.3528 9.53715C1.10788 9.78208 0.979656 10.1202 1.00062 10.466C0.979656 10.8117 1.10788 11.1499 1.3528 11.3948C1.59772 11.6397 1.93587 11.7679 2.28162 11.747Z" fill="#377DFF"/>
</svg>
